<svg width="265" height="241" viewBox="0 0 265 241" fill="none" xmlns="http://www.w3.org/2000/svg">
<path d="M86.5 67C86.5 67.1898 86.4195 67.4141 86.1878 67.6774C85.9534 67.9438 85.5848 68.2247 85.0695 68.5081C84.0393 69.0745 82.5154 69.6007 80.5895 70.0485C76.7458 70.9424 71.4106 71.5 65.5 71.5C59.5894 71.5 54.2542 70.9424 50.4105 70.0485C48.4846 69.6007 46.9607 69.0745 45.9305 68.5081C45.4152 68.2247 45.0466 67.9438 44.8122 67.6774C44.5805 67.4141 44.5 67.1898 44.5 67C44.5 66.8102 44.5805 66.5859 44.8122 66.3226C45.0466 66.0562 45.4152 65.7753 45.9305 65.4919C46.9607 64.9255 48.4846 64.3993 50.4105 63.9515C54.2542 63.0576 59.5894 62.5 65.5 62.5C71.4106 62.5 76.7458 63.0576 80.5895 63.9515C82.5154 64.3993 84.0393 64.9255 85.0695 65.4919C85.5848 65.7753 85.9534 66.0562 86.1878 66.3226C86.4195 66.5859 86.5 66.8102 86.5 67Z" fill="#D9D9D9" stroke="black"/>
<path d="M55.6091 37.5H75.6151C79.6697 37.5 82.7347 41.1714 82.0106 45.1608L78.7435 63.1608C78.1824 66.2524 75.4901 68.5 72.348 68.5H59.3602C56.2815 68.5 53.625 66.3401 52.9969 63.3261L49.2458 45.3261C48.4047 41.2896 51.4859 37.5 55.6091 37.5Z" fill="#D9D9D9" stroke="black"/>
<g filter="url(#filter0_d_1_2)">
<path d="M54.0674 40.888C52.1903 42.7816 53.5316 46 56.198 46H75.4465C78.0146 46 79.3955 42.9833 77.7172 41.0395V41.0395C77.1474 40.3794 76.3185 40 75.4465 40H56.198C55.3978 40 54.6308 40.3197 54.0674 40.888V40.888Z" fill="#854D0E"/>
</g>
<g filter="url(#filter1_d_1_2)">
<path d="M54.1151 30.6117L55.39 15.6487C55.5535 13.7291 58.2627 13.4803 58.7731 15.338C58.8366 15.5692 58.8513 15.8111 58.8161 16.0482L56.6228 30.8398C56.5877 31.0767 56.5954 31.318 56.6456 31.5522L57.8187 37.028C57.8366 37.1115 57.8436 37.1968 57.8395 37.282C57.7861 38.4028 56.2021 38.5807 55.9013 37.4997L54.1811 31.3177C54.1173 31.0882 54.0949 30.8491 54.1151 30.6117Z" fill="#854D0E"/>
<path d="M54.1151 30.6117L55.39 15.6487C55.5535 13.7291 58.2627 13.4803 58.7731 15.338C58.8366 15.5692 58.8513 15.8111 58.8161 16.0482L56.6228 30.8398C56.5877 31.0767 56.5954 31.318 56.6456 31.5522L57.8187 37.028C57.8366 37.1115 57.8436 37.1968 57.8395 37.282C57.7861 38.4028 56.2021 38.5807 55.9013 37.4997L54.1811 31.3177C54.1173 31.0882 54.0949 30.8491 54.1151 30.6117Z" stroke="#854D0E"/>
</g>
<g filter="url(#filter2_d_1_2)">
<path d="M62.5987 33.9816L63.417 23.792C63.5589 22.0248 65.9651 21.6146 66.6845 23.235C66.8211 23.5427 66.8638 23.8838 66.8074 24.2157L65.1349 34.0463C65.0777 34.3827 65.1075 34.7282 65.2215 35.0498L66.437 38.4801C66.4762 38.5905 66.4946 38.7071 66.4915 38.8242C66.4645 39.8386 65.0827 40.1155 64.667 39.1898L62.7678 34.9611C62.6299 34.654 62.5717 34.3171 62.5987 33.9816Z" fill="#854D0E"/>
<path d="M62.5987 33.9816L63.417 23.792C63.5589 22.0248 65.9651 21.6146 66.6845 23.235C66.8211 23.5427 66.8638 23.8838 66.8074 24.2157L65.1349 34.0463C65.0777 34.3827 65.1075 34.7282 65.2215 35.0498L66.437 38.4801C66.4762 38.5905 66.4946 38.7071 66.4915 38.8242C66.4645 39.8386 65.0827 40.1155 64.667 39.1898L62.7678 34.9611C62.6299 34.654 62.5717 34.3171 62.5987 33.9816Z" stroke="#854D0E"/>
</g>
<g filter="url(#filter3_d_1_2)">
<path d="M72.0484 33.8821L72.5993 19.4348C72.6722 17.5232 75.3395 17.1343 75.9551 18.9456C76.035 19.1806 76.0632 19.4301 76.0378 19.677L74.5657 33.9775C74.5403 34.2244 74.5611 34.4739 74.6269 34.7132L76.0535 39.8949C76.0769 39.9799 76.0888 40.0676 76.0889 40.1558C76.0895 41.2686 74.5334 41.529 74.1718 40.4766L72.1555 34.6082C72.0753 34.3749 72.039 34.1287 72.0484 33.8821Z" fill="#854D0E"/>
<path d="M72.0484 33.8821L72.5993 19.4348C72.6722 17.5232 75.3395 17.1343 75.9551 18.9456C76.035 19.1806 76.0632 19.4301 76.0378 19.677L74.5657 33.9775C74.5403 34.2244 74.5611 34.4739 74.6269 34.7132L76.0535 39.8949C76.0769 39.9799 76.0888 40.0676 76.0889 40.1558C76.0895 41.2686 74.5334 41.529 74.1718 40.4766L72.1555 34.6082C72.0753 34.3749 72.039 34.1287 72.0484 33.8821Z" stroke="#854D0E"/>
</g>
<path d="M107.898 79.1648V24.3636H112.926V79.1648H107.898ZM107.898 68.6818C105.682 68.6818 103.665 68.2841 101.847 67.4886C100.028 66.679 98.4659 65.5355 97.1591 64.0582C95.8523 62.5668 94.8438 60.7841 94.1335 58.7102C93.4233 56.6364 93.0682 54.3352 93.0682 51.8068C93.0682 49.25 93.4233 46.9347 94.1335 44.8608C94.8438 42.7727 95.8523 40.983 97.1591 39.4915C98.4659 38 100.028 36.8565 101.847 36.0611C103.665 35.2514 105.682 34.8466 107.898 34.8466H109.432V68.6818H107.898ZM107.898 64.1648H108.75V39.3636H107.898C106.222 39.3636 104.766 39.7045 103.53 40.3864C102.294 41.054 101.271 41.9702 100.462 43.1349C99.6662 44.2855 99.0696 45.6065 98.6719 47.098C98.2884 48.5895 98.0966 50.1591 98.0966 51.8068C98.0966 53.9943 98.4446 56.0256 99.1406 57.9006C99.8366 59.7756 100.909 61.2884 102.358 62.4389C103.807 63.5895 105.653 64.1648 107.898 64.1648ZM112.926 68.6818H111.392V34.8466H112.926C115.142 34.8466 117.159 35.2514 118.977 36.0611C120.795 36.8565 122.358 38 123.665 39.4915C124.972 40.983 125.98 42.7727 126.69 44.8608C127.401 46.9347 127.756 49.25 127.756 51.8068C127.756 54.3352 127.401 56.6364 126.69 58.7102C125.98 60.7841 124.972 62.5668 123.665 64.0582C122.358 65.5355 120.795 66.679 118.977 67.4886C117.159 68.2841 115.142 68.6818 112.926 68.6818ZM112.926 64.1648C114.616 64.1648 116.072 63.8381 117.294 63.1847C118.53 62.517 119.545 61.608 120.341 60.4574C121.151 59.2926 121.747 57.9716 122.131 56.4943C122.528 55.0028 122.727 53.4403 122.727 51.8068C122.727 49.6193 122.379 47.581 121.683 45.6918C120.987 43.8026 119.915 42.2756 118.466 41.1108C117.017 39.946 115.17 39.3636 112.926 39.3636H112.074V64.1648H112.926ZM149.164 68.6818C146.01 68.6818 143.29 67.9858 141.003 66.5938C138.73 65.1875 136.976 63.2273 135.74 60.7131C134.519 58.1847 133.908 55.2443 133.908 51.892C133.908 48.5398 134.519 45.5852 135.74 43.0284C136.976 40.4574 138.695 38.4545 140.897 37.0199C143.113 35.571 145.698 34.8466 148.652 34.8466C150.357 34.8466 152.04 35.1307 153.702 35.6989C155.364 36.267 156.877 37.1903 158.24 38.4688C159.604 39.733 160.691 41.4091 161.5 43.4972C162.31 45.5852 162.715 48.1562 162.715 51.2102V53.3409H137.488V48.9943H157.601C157.601 47.1477 157.232 45.5 156.493 44.0511C155.769 42.6023 154.732 41.4588 153.382 40.6207C152.047 39.7827 150.471 39.3636 148.652 39.3636C146.65 39.3636 144.917 39.8608 143.453 40.8551C142.005 41.8352 140.89 43.1136 140.108 44.6903C139.327 46.267 138.936 47.9574 138.936 49.7614V52.6591C138.936 55.1307 139.363 57.2259 140.215 58.9446C141.081 60.6491 142.282 61.9489 143.816 62.8438C145.35 63.7244 147.132 64.1648 149.164 64.1648C150.485 64.1648 151.678 63.9801 152.743 63.6108C153.823 63.2273 154.753 62.6591 155.534 61.9062C156.316 61.1392 156.919 60.1875 157.346 59.0511L162.203 60.4148C161.692 62.0625 160.833 63.5114 159.625 64.7614C158.418 65.9972 156.926 66.9631 155.151 67.6591C153.375 68.3409 151.38 68.6818 149.164 68.6818Z" fill="black"/>
<path d="M35.9375 72L20.9375 51.9716H15.5682V72H10.2841V28.3636H15.5682V47.2841H17.8693L35.3409 28.3636H41.6477L24.0057 47.5398L42.2443 72H35.9375Z" fill="black"/>
<path d="M8.28409 130V86.3636H34.6193V91.0511H13.5682V104.688H24.6477C27.7727 104.688 30.4077 105.199 32.5526 106.222C34.7116 107.244 36.3452 108.686 37.4531 110.547C38.5753 112.408 39.1364 114.602 39.1364 117.131C39.1364 119.659 38.5753 121.889 37.4531 123.821C36.3452 125.753 34.7116 127.266 32.5526 128.359C30.4077 129.453 27.7727 130 24.6477 130H8.28409ZM13.5682 125.398H24.6477C26.6364 125.398 28.3196 125 29.6974 124.205C31.0895 123.395 32.1406 122.358 32.8509 121.094C33.5753 119.815 33.9375 118.466 33.9375 117.045C33.9375 114.957 33.1349 113.161 31.5298 111.655C29.9247 110.135 27.6307 109.375 24.6477 109.375H13.5682V125.398ZM56.7837 130.767C54.7099 130.767 52.8278 130.376 51.1374 129.595C49.4471 128.8 48.1048 127.656 47.1104 126.165C46.1161 124.659 45.619 122.841 45.619 120.71C45.619 118.835 45.9883 117.315 46.7269 116.151C47.4656 114.972 48.4528 114.048 49.6886 113.381C50.9244 112.713 52.288 112.216 53.7795 111.889C55.2852 111.548 56.7979 111.278 58.3178 111.08C60.3065 110.824 61.9187 110.632 63.1545 110.504C64.4045 110.362 65.3136 110.128 65.8817 109.801C66.4641 109.474 66.7553 108.906 66.7553 108.097V107.926C66.7553 105.824 66.18 104.19 65.0295 103.026C63.8931 101.861 62.1673 101.278 59.8519 101.278C57.4513 101.278 55.5692 101.804 54.2056 102.855C52.842 103.906 51.8832 105.028 51.3292 106.222L46.5565 104.517C47.4087 102.528 48.5451 100.98 49.9656 99.8722C51.4002 98.75 52.9627 97.9687 54.6531 97.5284C56.3576 97.0739 58.0337 96.8466 59.6815 96.8466C60.7326 96.8466 61.94 96.9744 63.3036 97.2301C64.6815 97.4716 66.0096 97.9759 67.288 98.7429C68.5806 99.5099 69.6531 100.668 70.5053 102.216C71.3576 103.764 71.7837 105.838 71.7837 108.438V130H66.7553V125.568H66.4996C66.1587 126.278 65.5906 127.038 64.7951 127.848C63.9996 128.658 62.9414 129.347 61.6204 129.915C60.2994 130.483 58.6871 130.767 56.7837 130.767ZM57.5508 126.25C59.5394 126.25 61.2156 125.859 62.5792 125.078C63.957 124.297 64.994 123.288 65.69 122.053C66.4002 120.817 66.7553 119.517 66.7553 118.153V113.551C66.5423 113.807 66.0735 114.041 65.3491 114.254C64.6388 114.453 63.815 114.631 62.8775 114.787C61.9542 114.929 61.0522 115.057 60.1715 115.17C59.305 115.27 58.6019 115.355 58.0621 115.426C56.7553 115.597 55.5337 115.874 54.3974 116.257C53.2752 116.626 52.3661 117.187 51.6701 117.94C50.9883 118.679 50.6474 119.687 50.6474 120.966C50.6474 122.713 51.2937 124.034 52.5863 124.929C53.8931 125.81 55.5479 126.25 57.5508 126.25ZM117.95 142.273C117.098 142.273 116.338 142.202 115.67 142.06C115.003 141.932 114.541 141.804 114.286 141.676L115.564 137.244C116.786 137.557 117.865 137.67 118.803 137.585C119.74 137.5 120.571 137.081 121.295 136.328C122.034 135.589 122.709 134.389 123.32 132.727L124.257 130.17L112.155 97.2727H117.609L126.643 123.352H126.984L136.018 97.2727H141.473L127.581 134.773C126.956 136.463 126.182 137.862 125.259 138.97C124.335 140.092 123.263 140.923 122.041 141.463C120.834 142.003 119.47 142.273 117.95 142.273ZM148.11 97.2727H153.138V125.312H165.496V97.2727H170.525V125.312H182.883V97.2727H187.911V130H148.11V97.2727ZM197.094 130V97.2727H202.123V111.506H205.447L217.208 97.2727H223.685L210.475 113.04L223.856 130H217.379L206.64 116.193H202.123V130H197.094ZM238.952 130.767C236.878 130.767 234.996 130.376 233.305 129.595C231.615 128.8 230.273 127.656 229.278 126.165C228.284 124.659 227.787 122.841 227.787 120.71C227.787 118.835 228.156 117.315 228.895 116.151C229.634 114.972 230.621 114.048 231.857 113.381C233.092 112.713 234.456 112.216 235.947 111.889C237.453 111.548 238.966 111.278 240.486 111.08C242.474 110.824 244.087 110.632 245.322 110.504C246.572 110.362 247.482 110.128 248.05 109.801C248.632 109.474 248.923 108.906 248.923 108.097V107.926C248.923 105.824 248.348 104.19 247.197 103.026C246.061 101.861 244.335 101.278 242.02 101.278C239.619 101.278 237.737 101.804 236.374 102.855C235.01 103.906 234.051 105.028 233.497 106.222L228.724 104.517C229.577 102.528 230.713 100.98 232.134 99.8722C233.568 98.75 235.131 97.9687 236.821 97.5284C238.526 97.0739 240.202 96.8466 241.849 96.8466C242.901 96.8466 244.108 96.9744 245.472 97.2301C246.849 97.4716 248.178 97.9759 249.456 98.7429C250.749 99.5099 251.821 100.668 252.673 102.216C253.526 103.764 253.952 105.838 253.952 108.438V130H248.923V125.568H248.668C248.327 126.278 247.759 127.038 246.963 127.848C246.168 128.658 245.109 129.347 243.788 129.915C242.467 130.483 240.855 130.767 238.952 130.767ZM239.719 126.25C241.707 126.25 243.384 125.859 244.747 125.078C246.125 124.297 247.162 123.288 247.858 122.053C248.568 120.817 248.923 119.517 248.923 118.153V113.551C248.71 113.807 248.241 114.041 247.517 114.254C246.807 114.453 245.983 114.631 245.045 114.787C244.122 114.929 243.22 115.057 242.339 115.17C241.473 115.27 240.77 115.355 240.23 115.426C238.923 115.597 237.702 115.874 236.565 116.257C235.443 116.626 234.534 117.187 233.838 117.94C233.156 118.679 232.815 119.687 232.815 120.966C232.815 122.713 233.462 124.034 234.754 124.929C236.061 125.81 237.716 126.25 239.719 126.25Z" fill="black"/>
<ellipse cx="95.6667" cy="119.667" rx="18.6667" ry="19.3333" fill="#1D4ED8"/>
<g filter="url(#filter4_d_1_2)">
<path d="M95.684 89L110.669 108.021L80.6469 107.979L95.684 89Z" fill="#F97316"/>
</g>
<ellipse cx="96" cy="91.3333" rx="11" ry="14.3333" fill="#1D4ED8"/>
<g filter="url(#filter5_i_1_2)">
<path d="M105 92.6667C105 99.4782 100.821 105 95.6667 105C90.512 105 86.3333 99.4782 86.3333 92.6667C86.3333 85.8552 90.512 80.3333 95.6667 80.3333C100.821 80.3333 105 85.8552 105 92.6667Z" fill="#FFEDD5"/>
</g>
<defs>
<filter id="filter0_d_1_2" x="49.192" y="40" width="33.2603" height="14" filterUnits="userSpaceOnUse" color-interpolation-filters="sRGB">
<feFlood flood-opacity="0" result="BackgroundImageFix"/>
<feColorMatrix in="SourceAlpha" type="matrix" values="0 0 0 0 0 0 0 0 0 0 0 0 0 0 0 0 0 0 127 0" result="hardAlpha"/>
<feOffset dy="4"/>
<feGaussianBlur stdDeviation="2"/>
<feComposite in2="hardAlpha" operator="out"/>
<feColorMatrix type="matrix" values="0 0 0 0 0 0 0 0 0 0 0 0 0 0 0 0 0 0 0.25 0"/>
<feBlend mode="normal" in2="BackgroundImageFix" result="effect1_dropShadow_1_2"/>
<feBlend mode="normal" in="SourceGraphic" in2="effect1_dropShadow_1_2" result="shape"/>
</filter>
<filter id="filter1_d_1_2" x="49.6079" y="13.569" width="13.7268" height="33.1544" filterUnits="userSpaceOnUse" color-interpolation-filters="sRGB">
<feFlood flood-opacity="0" result="BackgroundImageFix"/>
<feColorMatrix in="SourceAlpha" type="matrix" values="0 0 0 0 0 0 0 0 0 0 0 0 0 0 0 0 0 0 127 0" result="hardAlpha"/>
<feOffset dy="4"/>
<feGaussianBlur stdDeviation="2"/>
<feComposite in2="hardAlpha" operator="out"/>
<feColorMatrix type="matrix" values="0 0 0 0 0 0 0 0 0 0 0 0 0 0 0 0 0 0 0.25 0"/>
<feBlend mode="normal" in2="BackgroundImageFix" result="effect1_dropShadow_1_2"/>
<feBlend mode="normal" in="SourceGraphic" in2="effect1_dropShadow_1_2" result="shape"/>
</filter>
<filter id="filter2_d_1_2" x="58.0923" y="21.7171" width="13.2393" height="26.5377" filterUnits="userSpaceOnUse" color-interpolation-filters="sRGB">
<feFlood flood-opacity="0" result="BackgroundImageFix"/>
<feColorMatrix in="SourceAlpha" type="matrix" values="0 0 0 0 0 0 0 0 0 0 0 0 0 0 0 0 0 0 127 0" result="hardAlpha"/>
<feOffset dy="4"/>
<feGaussianBlur stdDeviation="2"/>
<feComposite in2="hardAlpha" operator="out"/>
<feColorMatrix type="matrix" values="0 0 0 0 0 0 0 0 0 0 0 0 0 0 0 0 0 0 0.25 0"/>
<feBlend mode="normal" in2="BackgroundImageFix" result="effect1_dropShadow_1_2"/>
<feBlend mode="normal" in="SourceGraphic" in2="effect1_dropShadow_1_2" result="shape"/>
</filter>
<filter id="filter3_d_1_2" x="67.547" y="17.2745" width="13.0419" height="32.3687" filterUnits="userSpaceOnUse" color-interpolation-filters="sRGB">
<feFlood flood-opacity="0" result="BackgroundImageFix"/>
<feColorMatrix in="SourceAlpha" type="matrix" values="0 0 0 0 0 0 0 0 0 0 0 0 0 0 0 0 0 0 127 0" result="hardAlpha"/>
<feOffset dy="4"/>
<feGaussianBlur stdDeviation="2"/>
<feComposite in2="hardAlpha" operator="out"/>
<feColorMatrix type="matrix" values="0 0 0 0 0 0 0 0 0 0 0 0 0 0 0 0 0 0 0.25 0"/>
<feBlend mode="normal" in2="BackgroundImageFix" result="effect1_dropShadow_1_2"/>
<feBlend mode="normal" in="SourceGraphic" in2="effect1_dropShadow_1_2" result="shape"/>
</filter>
<filter id="filter4_d_1_2" x="76.6469" y="89" width="38.0222" height="27.0205" filterUnits="userSpaceOnUse" color-interpolation-filters="sRGB">
<feFlood flood-opacity="0" result="BackgroundImageFix"/>
<feColorMatrix in="SourceAlpha" type="matrix" values="0 0 0 0 0 0 0 0 0 0 0 0 0 0 0 0 0 0 127 0" result="hardAlpha"/>
<feOffset dy="4"/>
<feGaussianBlur stdDeviation="2"/>
<feComposite in2="hardAlpha" operator="out"/>
<feColorMatrix type="matrix" values="0 0 0 0 0 0 0 0 0 0 0 0 0 0 0 0 0 0 0.25 0"/>
<feBlend mode="normal" in2="BackgroundImageFix" result="effect1_dropShadow_1_2"/>
<feBlend mode="normal" in="SourceGraphic" in2="effect1_dropShadow_1_2" result="shape"/>
</filter>
<filter id="filter5_i_1_2" x="86.3333" y="80.3333" width="18.6667" height="28.6667" filterUnits="userSpaceOnUse" color-interpolation-filters="sRGB">
<feFlood flood-opacity="0" result="BackgroundImageFix"/>
<feBlend mode="normal" in="SourceGraphic" in2="BackgroundImageFix" result="shape"/>
<feColorMatrix in="SourceAlpha" type="matrix" values="0 0 0 0 0 0 0 0 0 0 0 0 0 0 0 0 0 0 127 0" result="hardAlpha"/>
<feOffset dy="4"/>
<feGaussianBlur stdDeviation="2"/>
<feComposite in2="hardAlpha" operator="arithmetic" k2="-1" k3="1"/>
<feColorMatrix type="matrix" values="0 0 0 0 0 0 0 0 0 0 0 0 0 0 0 0 0 0 0.25 0"/>
<feBlend mode="normal" in2="shape" result="effect1_innerShadow_1_2"/>
</filter>
</defs>
</svg>
